<svg xmlns="http://www.w3.org/2000/svg" width="1125" viewBox="0 0 1125 1125" height="1125" version="1.0"><g fill="#110F12"><g><g><path d="M 95.1875 -112.78125 L 73.59375 0 L 16 0 L 123.1875 -559.953125 L 213.578125 -559.953125 L 320.765625 0 L 258.375 0 L 236.78125 -112.78125 Z M 103.1875 -166.390625 L 227.984375 -166.390625 L 164.78125 -489.546875 Z M 103.1875 -166.390625" transform="translate(-13.44 807.895)"/></g></g></g><g fill="#110F12"><g><g>
<style>
  path {
    fill: #000000;
    stroke: #000000;
  }
  @media (prefers-color-scheme: dark) {
    path { fill: #ffffff; stroke: #ffffff; }
  }
</style>
<path d="M 131.1875 -200.78125 L 12.796875 -559.953125 L 77.59375 -559.953125 L 164.78125 -284.765625 L 252.78125 -559.953125 L 311.96875 -559.953125 L 192.78125 -200.78125 L 192.78125 0 L 131.1875 0 Z M 131.1875 -200.78125" transform="translate(293.73 807.895)"/></g></g></g><g ><g><g><path d="M 32 0 L 32 -559.953125 L 94.390625 -559.953125 L 94.390625 -56.796875 L 254.375 -56.796875 L 254.375 0 Z M 32 0" transform="translate(588.103 807.895)"/></g></g></g><g ><g><g><path d="M 27.203125 -424.765625 C 27.203125 -467.953125 37.734375 -502.210938 58.796875 -527.546875 C 79.859375 -552.878906 111.988281 -565.546875 155.1875 -565.546875 C 198.382812 -565.546875 230.644531 -552.878906 251.96875 -527.546875 C 273.300781 -502.210938 283.96875 -467.953125 283.96875 -424.765625 L 283.96875 -135.1875 C 283.96875 -92.519531 273.300781 -58.390625 251.96875 -32.796875 C 230.644531 -7.203125 198.382812 5.59375 155.1875 5.59375 C 111.988281 5.59375 79.859375 -7.203125 58.796875 -32.796875 C 37.734375 -58.390625 27.203125 -92.519531 27.203125 -135.1875 Z M 88.796875 -131.984375 C 88.796875 -106.390625 94.257812 -86.523438 105.1875 -72.390625 C 116.125 -58.253906 132.789062 -51.1875 155.1875 -51.1875 C 178.113281 -51.1875 194.910156 -58.253906 205.578125 -72.390625 C 216.242188 -86.523438 221.578125 -106.390625 221.578125 -131.984375 L 221.578125 -427.953125 C 221.578125 -453.554688 216.242188 -473.421875 205.578125 -487.546875 C 194.910156 -501.679688 178.113281 -508.75 155.1875 -508.75 C 132.789062 -508.75 116.125 -501.679688 105.1875 -487.546875 C 94.257812 -473.421875 88.796875 -453.554688 88.796875 -427.953125 Z M 88.796875 -131.984375" transform="translate(827.28 807.895)"/></g></g></g></svg>