<svg xmlns="http://www.w3.org/2000/svg" xmlns:xlink="http://www.w3.org/1999/xlink" width="1125" viewBox="0 0 1125 600" height="600" version="1.0"><defs><clipPath id="a"><path d="M 85 197 L 193 197 L 193 403 L 85 403 Z M 85 197"/></clipPath><clipPath id="b"><path d="M 89.984375 402.667969 L 89.371094 402.074219 C 86.957031 399.519531 85.53125 395.550781 85.53125 390.414062 L 85.53125 391.625 L 85.53125 208.0625 L 85.53125 209.277344 C 85.53125 203.710938 87.191406 199.519531 89.976562 197.007812 L 192.738281 299.839844 L 89.984375 402.667969"/></clipPath><clipPath id="d"><path d="M 192 265 L 278 265 L 278 335 L 192 335 Z M 192 265"/></clipPath><clipPath id="e"><path d="M 226.996094 334.128906 L 192.738281 299.839844 L 226.992188 265.558594 L 268.347656 289.070312 C 273.597656 292.054688 276.546875 295.902344 277.039062 299.835938 L 277.039062 299.851562 C 276.546875 303.777344 273.597656 307.628906 268.347656 310.613281 L 226.996094 334.128906"/></clipPath><clipPath id="g"><path d="M 89 299 L 227 299 L 227 406 L 89 406 Z M 89 299"/></clipPath><clipPath id="h"><path d="M 97.316406 405.367188 C 94.445312 405.367188 91.941406 404.433594 89.988281 402.667969 L 89.988281 402.664062 L 192.738281 299.839844 L 226.996094 334.128906 L 106.605469 402.582031 C 103.277344 404.472656 100.121094 405.367188 97.316406 405.367188"/></clipPath><clipPath id="j"><path d="M 89 194 L 227 194 L 227 300 L 89 300 Z M 89 194"/></clipPath><clipPath id="k"><path d="M 192.738281 299.839844 L 89.976562 197.007812 C 91.929688 195.246094 94.429688 194.3125 97.296875 194.3125 C 100.109375 194.3125 103.269531 195.210938 106.605469 197.105469 L 226.992188 265.558594 L 192.734375 299.839844"/></clipPath><clipPath id="m"><path d="M 89 334 L 228 334 L 228 407 L 89 407 Z M 89 334"/></clipPath><clipPath id="n"><path d="M 97.316406 406.582031 C 94.449219 406.582031 91.941406 405.644531 89.984375 403.882812 C 89.976562 403.875 89.964844 403.867188 89.957031 403.863281 L 89.421875 403.339844 C 89.40625 403.324219 89.390625 403.304688 89.371094 403.285156 L 89.988281 402.667969 C 91.941406 404.433594 94.445312 405.371094 97.316406 405.367188 C 100.121094 405.367188 103.277344 404.472656 106.605469 402.582031 L 226.996094 334.128906 L 227.765625 334.902344 L 226.984375 335.34375 L 106.605469 403.792969 C 103.570312 405.515625 100.683594 406.414062 98.074219 406.5625 C 97.824219 406.574219 97.570312 406.582031 97.316406 406.582031"/></clipPath><clipPath id="p"><path d="M 85 390 L 90 390 L 90 404 L 85 404 Z M 85 390"/></clipPath><clipPath id="q"><path d="M 89.371094 403.285156 C 86.957031 400.730469 85.53125 396.765625 85.53125 391.625 L 85.53125 390.414062 C 85.53125 395.550781 86.957031 399.519531 89.371094 402.074219 L 89.984375 402.667969 L 89.371094 403.285156"/></clipPath><clipPath id="r"><path d="M 226 299 L 278 299 L 278 335 L 226 335 Z M 226 299"/></clipPath><clipPath id="s"><path d="M 227.765625 334.902344 L 226.996094 334.128906 L 268.347656 310.613281 C 273.597656 307.628906 276.546875 303.777344 277.039062 299.851562 C 277.039062 301.292969 276.71875 302.730469 276.082031 304.132812 C 274.792969 306.957031 272.214844 309.625 268.347656 311.824219 L 227.765625 334.902344"/></clipPath><clipPath id="u"><path d="M 226 264 L 278 264 L 278 300 L 226 300 Z M 226 264"/></clipPath><clipPath id="v"><path d="M 277.039062 299.835938 C 276.546875 295.902344 273.597656 292.054688 268.347656 289.070312 L 226.992188 265.558594 L 227.761719 264.785156 L 227.765625 264.785156 L 268.347656 287.859375 C 274.136719 291.152344 277.035156 295.496094 277.039062 299.835938"/></clipPath><clipPath id="x"><path d="M 85 196 L 90 196 L 90 210 L 85 210 Z M 85 196"/></clipPath><clipPath id="y"><path d="M 85.53125 209.277344 L 85.53125 208.007812 C 85.53125 207.550781 85.542969 207.101562 85.566406 206.667969 L 85.566406 206.648438 C 85.566406 206.644531 85.566406 206.636719 85.570312 206.628906 L 85.570312 206.582031 C 85.820312 202.15625 87.191406 198.703125 89.371094 196.398438 L 89.976562 197.007812 C 87.191406 199.519531 85.53125 203.710938 85.53125 209.277344"/></clipPath><clipPath id="A"><path d="M 89 193 L 228 193 L 228 266 L 89 266 Z M 89 193"/></clipPath><clipPath id="B"><path d="M 226.992188 265.558594 L 106.605469 197.105469 C 103.269531 195.210938 100.109375 194.3125 97.296875 194.3125 C 94.429688 194.3125 91.929688 195.246094 89.976562 197.007812 L 89.371094 196.398438 C 89.558594 196.195312 89.757812 196.003906 89.960938 195.816406 C 89.964844 195.8125 89.976562 195.804688 89.984375 195.796875 C 91.921875 194.050781 94.394531 193.117188 97.238281 193.101562 L 97.296875 193.101562 C 100.109375 193.101562 103.269531 194 106.605469 195.890625 L 227.765625 264.78125 L 227.761719 264.785156 L 226.992188 265.558594"/></clipPath><linearGradient x1="283.918" gradientTransform="matrix(.26944 0 0 -.51689 85.488 402.753)" xmlns:xlink="http://www.w3.org/1999/xlink" y1="457.393" x2="36.38" gradientUnits="userSpaceOnUse" y2="-18.665" xlink:type="simple" xlink:actuate="onLoad" id="c" xlink:show="other"><stop stop-color="#00A0FF" offset="0"/><stop stop-color="#00A0FF" offset=".125"/><stop stop-color="#00A0FF" offset=".156"/><stop stop-color="#00A0FF" offset=".164"/><stop stop-color="#00A1FF" offset=".168"/><stop stop-color="#00A2FF" offset=".172"/><stop stop-color="#00A3FF" offset=".176"/><stop stop-color="#00A4FF" offset=".18"/><stop stop-color="#00A5FF" offset=".184"/><stop stop-color="#00A5FF" offset=".188"/><stop stop-color="#00A6FF" offset=".191"/><stop stop-color="#00A7FF" offset=".195"/><stop stop-color="#00A8FF" offset=".199"/><stop stop-color="#00A9FF" offset=".203"/><stop stop-color="#00A9FF" offset=".207"/><stop stop-color="#0AF" offset=".211"/><stop stop-color="#00ABFF" offset=".215"/><stop stop-color="#00ACFF" offset=".219"/><stop stop-color="#00ACFF" offset=".223"/><stop stop-color="#00ADFF" offset=".227"/><stop stop-color="#00AEFF" offset=".23"/><stop stop-color="#00AFFF" offset=".234"/><stop stop-color="#00B0FF" offset=".238"/><stop stop-color="#00B0FF" offset=".242"/><stop stop-color="#00B1FF" offset=".246"/><stop stop-color="#00B2FF" offset=".25"/><stop stop-color="#00B3FF" offset=".254"/><stop stop-color="#00B4FF" offset=".258"/><stop stop-color="#00B4FF" offset=".262"/><stop stop-color="#00B5FF" offset=".266"/><stop stop-color="#00B6FF" offset=".27"/><stop stop-color="#00B7FF" offset=".273"/><stop stop-color="#00B8FF" offset=".277"/><stop stop-color="#00B8FF" offset=".281"/><stop stop-color="#00B9FF" offset=".285"/><stop stop-color="#00BAFF" offset=".289"/><stop stop-color="#0BF" offset=".293"/><stop stop-color="#00BCFF" offset=".297"/><stop stop-color="#00BCFF" offset=".301"/><stop stop-color="#00BDFF" offset=".305"/><stop stop-color="#00BEFF" offset=".309"/><stop stop-color="#00BEFF" offset=".313"/><stop stop-color="#00BFFF" offset=".316"/><stop stop-color="#00C0FF" offset=".32"/><stop stop-color="#00C0FF" offset=".324"/><stop stop-color="#00C1FF" offset=".328"/><stop stop-color="#00C1FF" offset=".332"/><stop stop-color="#00C2FF" offset=".336"/><stop stop-color="#00C2FF" offset=".34"/><stop stop-color="#00C3FF" offset=".344"/><stop stop-color="#00C3FF" offset=".348"/><stop stop-color="#00C4FF" offset=".352"/><stop stop-color="#00C5FF" offset=".355"/><stop stop-color="#00C5FF" offset=".359"/><stop stop-color="#00C6FF" offset=".363"/><stop stop-color="#00C6FF" offset=".367"/><stop stop-color="#00C7FF" offset=".371"/><stop stop-color="#00C7FF" offset=".375"/><stop stop-color="#00C8FF" offset=".379"/><stop stop-color="#00C8FF" offset=".383"/><stop stop-color="#00C9FF" offset=".387"/><stop stop-color="#00CAFF" offset=".391"/><stop stop-color="#00CAFF" offset=".395"/><stop stop-color="#00CBFF" offset=".398"/><stop stop-color="#00CBFF" offset=".402"/><stop stop-color="#0CF" offset=".406"/><stop stop-color="#0CF" offset=".41"/><stop stop-color="#00CDFF" offset=".414"/><stop stop-color="#00CDFF" offset=".418"/><stop stop-color="#00CEFF" offset=".422"/><stop stop-color="#00CEFF" offset=".426"/><stop stop-color="#00CFFF" offset=".43"/><stop stop-color="#00D0FF" offset=".434"/><stop stop-color="#00D0FF" offset=".438"/><stop stop-color="#00D1FF" offset=".441"/><stop stop-color="#00D1FF" offset=".445"/><stop stop-color="#00D2FF" offset=".449"/><stop stop-color="#00D2FF" offset=".453"/><stop stop-color="#00D3FF" offset=".461"/><stop stop-color="#00D3FF" offset=".469"/><stop stop-color="#00D4FF" offset=".477"/><stop stop-color="#00D5FF" offset=".484"/><stop stop-color="#00D6FF" offset=".492"/><stop stop-color="#00D6FF" offset=".5"/><stop stop-color="#00D7FF" offset=".508"/><stop stop-color="#00D8FF" offset=".516"/><stop stop-color="#00D8FF" offset=".523"/><stop stop-color="#00D9FF" offset=".531"/><stop stop-color="#00DAFF" offset=".539"/><stop stop-color="#00DBFF" offset=".547"/><stop stop-color="#00DBFF" offset=".555"/><stop stop-color="#00DCFF" offset=".563"/><stop stop-color="#0DF" offset=".57"/><stop stop-color="#0DF" offset=".578"/><stop stop-color="#00DEFF" offset=".586"/><stop stop-color="#00DFFF" offset=".594"/><stop stop-color="#00E0FF" offset=".625"/><stop stop-color="#00E0FF" offset=".656"/><stop stop-color="#00E1FF" offset=".658"/><stop stop-color="#00E2FF" offset=".688"/><stop stop-color="#00E2FF" offset=".719"/><stop stop-color="#00E3FF" offset=".75"/><stop stop-color="#00E3FF" offset="1"/></linearGradient><linearGradient x1="204.356" gradientTransform="matrix(.41379 0 0 -.33657 192.48 334.404)" xmlns:xlink="http://www.w3.org/1999/xlink" y1="104.456" x2=".619" gradientUnits="userSpaceOnUse" y2="104.456" xlink:type="simple" xlink:actuate="onLoad" id="f" xlink:show="other"><stop stop-color="#FD0" offset="0"/><stop stop-color="#FD0" offset=".016"/><stop stop-color="#FFDC00" offset=".031"/><stop stop-color="#FFDC00" offset=".047"/><stop stop-color="#FFDB00" offset=".063"/><stop stop-color="#FFDB00" offset=".078"/><stop stop-color="#FFDA00" offset=".094"/><stop stop-color="#FFDA00" offset=".109"/><stop stop-color="#FFD900" offset=".125"/><stop stop-color="#FFD800" offset=".141"/><stop stop-color="#FFD800" offset=".156"/><stop stop-color="#FFD700" offset=".172"/><stop stop-color="#FFD700" offset=".188"/><stop stop-color="#FFD600" offset=".203"/><stop stop-color="#FFD600" offset=".219"/><stop stop-color="#FFD500" offset=".234"/><stop stop-color="#FFD400" offset=".25"/><stop stop-color="#FFD400" offset=".266"/><stop stop-color="#FFD300" offset=".281"/><stop stop-color="#FFD300" offset=".297"/><stop stop-color="#FFD200" offset=".313"/><stop stop-color="#FFD200" offset=".328"/><stop stop-color="#FFD100" offset=".344"/><stop stop-color="#FFD100" offset=".359"/><stop stop-color="#FFD000" offset=".375"/><stop stop-color="#FFCF00" offset=".391"/><stop stop-color="#FFCF00" offset=".406"/><stop stop-color="#FFCE00" offset=".422"/><stop stop-color="#FFCE00" offset=".438"/><stop stop-color="#FFCD00" offset=".453"/><stop stop-color="#FFCD00" offset=".469"/><stop stop-color="#FC0" offset=".484"/><stop stop-color="#FFCB00" offset=".5"/><stop stop-color="#FFCB00" offset=".516"/><stop stop-color="#FFCA00" offset=".531"/><stop stop-color="#FFCA00" offset=".547"/><stop stop-color="#FFC900" offset=".563"/><stop stop-color="#FFC900" offset=".578"/><stop stop-color="#FFC800" offset=".594"/><stop stop-color="#FFC800" offset=".609"/><stop stop-color="#FFC700" offset=".625"/><stop stop-color="#FFC600" offset=".641"/><stop stop-color="#FFC600" offset=".656"/><stop stop-color="#FFC500" offset=".672"/><stop stop-color="#FFC500" offset=".688"/><stop stop-color="#FFC400" offset=".703"/><stop stop-color="#FFC400" offset=".719"/><stop stop-color="#FFC300" offset=".734"/><stop stop-color="#FFC300" offset=".75"/><stop stop-color="#FFC200" offset=".766"/><stop stop-color="#FFC100" offset=".781"/><stop stop-color="#FFC100" offset=".797"/><stop stop-color="#FFC000" offset=".813"/><stop stop-color="#FFC000" offset=".828"/><stop stop-color="#FFBF00" offset=".844"/><stop stop-color="#FFBF00" offset=".859"/><stop stop-color="#FFBE00" offset=".875"/><stop stop-color="#FFBD00" offset=".891"/><stop stop-color="#FFBD00" offset=".906"/><stop stop-color="#FFBC00" offset=".938"/><stop stop-color="#FB0" offset=".969"/><stop stop-color="#FB0" offset="1"/></linearGradient><linearGradient x1="354.819" gradientTransform="matrix(.42523 0 0 -.32751 89.822 405.411)" xmlns:xlink="http://www.w3.org/1999/xlink" y1="280.293" x2="-3.715" gradientUnits="userSpaceOnUse" y2="5.479" xlink:type="simple" xlink:actuate="onLoad" id="i" xlink:show="other"><stop stop-color="#FF3A44" offset="0"/><stop stop-color="#FF3A44" offset=".125"/><stop stop-color="#FF3A44" offset=".188"/><stop stop-color="#FF3A44" offset=".219"/><stop stop-color="#FE3945" offset=".234"/><stop stop-color="#FD3945" offset=".25"/><stop stop-color="#FD3845" offset=".266"/><stop stop-color="#FC3846" offset=".281"/><stop stop-color="#FB3746" offset=".297"/><stop stop-color="#FA3746" offset=".313"/><stop stop-color="#FA3647" offset=".328"/><stop stop-color="#F93647" offset=".344"/><stop stop-color="#F83548" offset=".359"/><stop stop-color="#F73548" offset=".375"/><stop stop-color="#F73448" offset=".391"/><stop stop-color="#F63449" offset=".406"/><stop stop-color="#F53349" offset=".422"/><stop stop-color="#F43349" offset=".434"/><stop stop-color="#F4324A" offset=".438"/><stop stop-color="#F4324A" offset=".453"/><stop stop-color="#F3324A" offset=".469"/><stop stop-color="#F2314B" offset=".484"/><stop stop-color="#F1314B" offset=".5"/><stop stop-color="#F0304B" offset=".516"/><stop stop-color="#F02F4C" offset=".531"/><stop stop-color="#EF2F4C" offset=".547"/><stop stop-color="#EE2E4C" offset=".563"/><stop stop-color="#ED2E4D" offset=".566"/><stop stop-color="#ED2E4D" offset=".578"/><stop stop-color="#ED2D4D" offset=".594"/><stop stop-color="#EC2D4E" offset=".609"/><stop stop-color="#EB2C4E" offset=".625"/><stop stop-color="#EA2C4E" offset=".641"/><stop stop-color="#EA2B4F" offset=".656"/><stop stop-color="#E92B4F" offset=".672"/><stop stop-color="#E82A4F" offset=".688"/><stop stop-color="#E72A50" offset=".703"/><stop stop-color="#E72950" offset=".719"/><stop stop-color="#E62951" offset=".734"/><stop stop-color="#E52851" offset=".75"/><stop stop-color="#E42851" offset=".766"/><stop stop-color="#E42752" offset=".781"/><stop stop-color="#E32752" offset=".797"/><stop stop-color="#E22652" offset=".813"/><stop stop-color="#E12653" offset=".828"/><stop stop-color="#E12553" offset=".844"/><stop stop-color="#E02554" offset=".859"/><stop stop-color="#DF2454" offset=".875"/><stop stop-color="#DE2454" offset=".891"/><stop stop-color="#DD2355" offset=".906"/><stop stop-color="#DD2355" offset=".922"/><stop stop-color="#DC2256" offset=".938"/><stop stop-color="#DB2256" offset=".953"/><stop stop-color="#DA2156" offset=".969"/><stop stop-color="#DA2057" offset=".984"/><stop stop-color="#D92057" offset="1"/></linearGradient><linearGradient x1="-4.416" gradientTransform="matrix(.42523 0 0 -.32751 89.905 300.104)" xmlns:xlink="http://www.w3.org/1999/xlink" y1="317.042" x2="353.953" gradientUnits="userSpaceOnUse" y2="41.936" xlink:type="simple" xlink:actuate="onLoad" id="l" xlink:show="other"><stop stop-color="#20BD73" offset="0"/><stop stop-color="#1FBE73" offset=".004"/><stop stop-color="#1FBE73" offset=".008"/><stop stop-color="#1EBF73" offset=".012"/><stop stop-color="#1EC073" offset=".016"/><stop stop-color="#1EC173" offset=".02"/><stop stop-color="#1DC173" offset=".023"/><stop stop-color="#1DC273" offset=".027"/><stop stop-color="#1CC373" offset=".031"/><stop stop-color="#1CC373" offset=".035"/><stop stop-color="#1CC473" offset=".039"/><stop stop-color="#1BC573" offset=".043"/><stop stop-color="#1BC573" offset=".047"/><stop stop-color="#1AC673" offset=".051"/><stop stop-color="#1AC773" offset=".055"/><stop stop-color="#19C873" offset=".059"/><stop stop-color="#19C874" offset=".063"/><stop stop-color="#19C974" offset=".066"/><stop stop-color="#18CA74" offset=".07"/><stop stop-color="#18CA74" offset=".074"/><stop stop-color="#17CB74" offset=".078"/><stop stop-color="#17CC74" offset=".082"/><stop stop-color="#17CC74" offset=".086"/><stop stop-color="#16CD74" offset=".09"/><stop stop-color="#16CE74" offset=".094"/><stop stop-color="#15CE74" offset=".098"/><stop stop-color="#15CF74" offset=".102"/><stop stop-color="#15D074" offset=".105"/><stop stop-color="#14D074" offset=".109"/><stop stop-color="#14D174" offset=".113"/><stop stop-color="#14D174" offset=".117"/><stop stop-color="#13D274" offset=".121"/><stop stop-color="#13D274" offset=".125"/><stop stop-color="#13D374" offset=".129"/><stop stop-color="#12D374" offset=".133"/><stop stop-color="#12D474" offset=".137"/><stop stop-color="#12D474" offset=".141"/><stop stop-color="#11D574" offset=".145"/><stop stop-color="#11D574" offset=".148"/><stop stop-color="#11D674" offset=".152"/><stop stop-color="#10D674" offset=".156"/><stop stop-color="#10D774" offset=".16"/><stop stop-color="#10D874" offset=".164"/><stop stop-color="#0FD874" offset=".168"/><stop stop-color="#0FD974" offset=".172"/><stop stop-color="#0FD974" offset=".176"/><stop stop-color="#0EDA74" offset=".18"/><stop stop-color="#0EDA74" offset=".184"/><stop stop-color="#0EDB75" offset=".188"/><stop stop-color="#0DDB75" offset=".191"/><stop stop-color="#0DDC75" offset=".195"/><stop stop-color="#0DDC75" offset=".199"/><stop stop-color="#0CDD75" offset=".203"/><stop stop-color="#0CDD75" offset=".207"/><stop stop-color="#0CDE75" offset=".211"/><stop stop-color="#0BDE75" offset=".215"/><stop stop-color="#0BDF75" offset=".219"/><stop stop-color="#0BDF75" offset=".223"/><stop stop-color="#0BE075" offset=".227"/><stop stop-color="#0AE075" offset=".23"/><stop stop-color="#0AE175" offset=".234"/><stop stop-color="#0AE175" offset=".238"/><stop stop-color="#09E275" offset=".242"/><stop stop-color="#09E375" offset=".246"/><stop stop-color="#09E375" offset=".25"/><stop stop-color="#08E475" offset=".254"/><stop stop-color="#08E475" offset=".258"/><stop stop-color="#08E575" offset=".262"/><stop stop-color="#07E575" offset=".266"/><stop stop-color="#07E675" offset=".27"/><stop stop-color="#07E675" offset=".273"/><stop stop-color="#06E775" offset=".281"/><stop stop-color="#06E775" offset=".289"/><stop stop-color="#05E875" offset=".297"/><stop stop-color="#05E975" offset=".305"/><stop stop-color="#04E975" offset=".313"/><stop stop-color="#04EA75" offset=".32"/><stop stop-color="#04EB75" offset=".328"/><stop stop-color="#03EB76" offset=".336"/><stop stop-color="#03EC76" offset=".344"/><stop stop-color="#02ED76" offset=".352"/><stop stop-color="#02ED76" offset=".359"/><stop stop-color="#01EE76" offset=".367"/><stop stop-color="#01EE76" offset=".375"/><stop stop-color="#01EF76" offset=".383"/><stop stop-color="#00F076" offset=".391"/><stop stop-color="#00F076" offset=".406"/><stop stop-color="#00F076" offset=".434"/><stop stop-color="#00F076" offset=".438"/><stop stop-color="#00F076" offset=".5"/><stop stop-color="#00F076" offset=".566"/><stop stop-color="#00F076" offset="1"/></linearGradient><linearGradient x1="294.601" gradientTransform="matrix(.51577 0 0 -.27002 89.076 406.903)" xmlns:xlink="http://www.w3.org/1999/xlink" y1="220.541" x2="-26.19" gradientUnits="userSpaceOnUse" y2="52.18" xlink:type="simple" xlink:actuate="onLoad" id="o" xlink:show="other"><stop stop-color="#CC2E36" offset="0"/><stop stop-color="#CC2E36" offset=".125"/><stop stop-color="#CC2E36" offset=".188"/><stop stop-color="#CC2E36" offset=".219"/><stop stop-color="#CB2D37" offset=".234"/><stop stop-color="#CA2D37" offset=".25"/><stop stop-color="#C92C37" offset=".266"/><stop stop-color="#C92C38" offset=".281"/><stop stop-color="#C82B38" offset=".297"/><stop stop-color="#C72B38" offset=".313"/><stop stop-color="#C72A39" offset=".328"/><stop stop-color="#C62A39" offset=".344"/><stop stop-color="#C52A39" offset=".344"/><stop stop-color="#C5293A" offset=".359"/><stop stop-color="#C5293A" offset=".375"/><stop stop-color="#C4293A" offset=".391"/><stop stop-color="#C3283A" offset=".406"/><stop stop-color="#C3283B" offset=".422"/><stop stop-color="#C2273B" offset=".438"/><stop stop-color="#C1273B" offset=".453"/><stop stop-color="#C1263C" offset=".469"/><stop stop-color="#C0263C" offset=".484"/><stop stop-color="#C0263C" offset=".5"/><stop stop-color="#BF253D" offset=".516"/><stop stop-color="#BE253D" offset=".531"/><stop stop-color="#BE243D" offset=".547"/><stop stop-color="#BD243E" offset=".563"/><stop stop-color="#BC233E" offset=".578"/><stop stop-color="#BC233E" offset=".594"/><stop stop-color="#BB233F" offset=".609"/><stop stop-color="#BA223F" offset=".625"/><stop stop-color="#BA223F" offset=".641"/><stop stop-color="#B92140" offset=".656"/><stop stop-color="#B92140" offset=".656"/><stop stop-color="#B82140" offset=".672"/><stop stop-color="#B82040" offset=".688"/><stop stop-color="#B72041" offset=".703"/><stop stop-color="#B61F41" offset=".719"/><stop stop-color="#B61F41" offset=".734"/><stop stop-color="#B51F42" offset=".75"/><stop stop-color="#B41E42" offset=".766"/><stop stop-color="#B41E42" offset=".781"/><stop stop-color="#B31D43" offset=".797"/><stop stop-color="#B21D43" offset=".813"/><stop stop-color="#B21C43" offset=".828"/><stop stop-color="#B11C44" offset=".844"/><stop stop-color="#B01C44" offset=".859"/><stop stop-color="#B01B44" offset=".875"/><stop stop-color="#AF1B45" offset=".891"/><stop stop-color="#AE1A45" offset=".906"/><stop stop-color="#AE1A45" offset=".922"/><stop stop-color="#AD1945" offset=".938"/><stop stop-color="#AC1946" offset=".953"/><stop stop-color="#AC1946" offset=".969"/><stop stop-color="#AB1846" offset=".984"/><stop stop-color="#AB1847" offset="1"/></linearGradient><linearGradient x1="112.763" gradientTransform="matrix(.44594 0 0 -.3123 226.755 334.964)" xmlns:xlink="http://www.w3.org/1999/xlink" y1="112.451" x2=".538" gradientUnits="userSpaceOnUse" y2="112.451" xlink:type="simple" xlink:actuate="onLoad" id="t" xlink:show="other"><stop stop-color="#E0C300" offset="0"/><stop stop-color="#E0C200" offset=".031"/><stop stop-color="#E0C200" offset=".063"/><stop stop-color="#E0C100" offset=".094"/><stop stop-color="#E0C100" offset=".125"/><stop stop-color="#E0C000" offset=".156"/><stop stop-color="#E0BF00" offset=".188"/><stop stop-color="#E0BF00" offset=".219"/><stop stop-color="#E0BE00" offset=".25"/><stop stop-color="#E0BE00" offset=".281"/><stop stop-color="#E0BD00" offset=".313"/><stop stop-color="#E0BC00" offset=".344"/><stop stop-color="#E0BC00" offset=".375"/><stop stop-color="#E0BB00" offset=".406"/><stop stop-color="#E0BB00" offset=".438"/><stop stop-color="#E0BA00" offset=".469"/><stop stop-color="#E0B900" offset=".5"/><stop stop-color="#E0B900" offset=".531"/><stop stop-color="#E0B800" offset=".563"/><stop stop-color="#E0B800" offset=".594"/><stop stop-color="#E0B700" offset=".625"/><stop stop-color="#E0B700" offset=".656"/><stop stop-color="#E0B600" offset=".688"/><stop stop-color="#E0B500" offset=".719"/><stop stop-color="#E0B500" offset=".75"/><stop stop-color="#E0B400" offset=".781"/><stop stop-color="#E0B400" offset=".813"/><stop stop-color="#E0B300" offset=".844"/><stop stop-color="#E0B200" offset=".875"/><stop stop-color="#E0B200" offset=".906"/><stop stop-color="#E0B100" offset=".938"/><stop stop-color="#E0B100" offset=".969"/><stop stop-color="#E0B000" offset="1"/></linearGradient><linearGradient x1="112.765" gradientTransform="matrix(.44593 0 0 -.3123 226.755 300.104)" xmlns:xlink="http://www.w3.org/1999/xlink" y1=".829" x2=".53" gradientUnits="userSpaceOnUse" y2=".829" xlink:type="simple" xlink:actuate="onLoad" id="w" xlink:show="other"><stop stop-color="#FFE640" offset="0"/><stop stop-color="#FFE640" offset=".063"/><stop stop-color="#FFE540" offset=".125"/><stop stop-color="#FFE440" offset=".188"/><stop stop-color="#FFE340" offset=".25"/><stop stop-color="#FFE240" offset=".313"/><stop stop-color="#FFE140" offset=".375"/><stop stop-color="#FFE040" offset=".438"/><stop stop-color="#FFDF40" offset=".5"/><stop stop-color="#FFDE40" offset=".563"/><stop stop-color="#FFDD40" offset=".625"/><stop stop-color="#FFDC40" offset=".688"/><stop stop-color="#FFDB40" offset=".75"/><stop stop-color="#FFDA40" offset=".813"/><stop stop-color="#FFD940" offset=".875"/><stop stop-color="#FFD840" offset=".938"/><stop stop-color="#FFD740" offset="1"/></linearGradient><linearGradient x1="62.408" gradientTransform="matrix(.21924 0 0 -.63523 85.488 209.363)" xmlns:xlink="http://www.w3.org/1999/xlink" y1="5.319" x2="53.624" gradientUnits="userSpaceOnUse" y2="-19.089" xlink:type="simple" xlink:actuate="onLoad" id="z" xlink:show="other"><stop stop-color="#40B8FF" offset="0"/><stop stop-color="#40B8FF" offset=".063"/><stop stop-color="#40B9FF" offset=".125"/><stop stop-color="#40BAFF" offset=".188"/><stop stop-color="#40BAFF" offset=".25"/><stop stop-color="#40BBFF" offset=".265"/><stop stop-color="#40BBFF" offset=".313"/><stop stop-color="#40BBFF" offset=".375"/><stop stop-color="#40BCFF" offset=".438"/><stop stop-color="#40BDFF" offset=".5"/><stop stop-color="#40BDFF" offset=".563"/><stop stop-color="#40BEFF" offset=".625"/><stop stop-color="#40BFFF" offset=".688"/><stop stop-color="#40BFFF" offset=".735"/><stop stop-color="#40BFFF" offset=".75"/><stop stop-color="#40C0FF" offset=".813"/><stop stop-color="#40C0FF" offset=".875"/><stop stop-color="#40C1FF" offset=".938"/><stop stop-color="#40C2FF" offset="1"/></linearGradient><linearGradient x1="-26.191" gradientTransform="matrix(.51576 0 0 -.27002 89.076 265.803)" xmlns:xlink="http://www.w3.org/1999/xlink" y1="218.259" x2="294.607" gradientUnits="userSpaceOnUse" y2="49.886" xlink:type="simple" xlink:actuate="onLoad" id="C" xlink:show="other"><stop stop-color="#5FC395" offset="0"/><stop stop-color="#5EC395" offset=".004"/><stop stop-color="#5EC495" offset=".008"/><stop stop-color="#5EC495" offset=".012"/><stop stop-color="#5DC595" offset=".016"/><stop stop-color="#5DC595" offset=".02"/><stop stop-color="#5DC696" offset=".023"/><stop stop-color="#5CC796" offset=".027"/><stop stop-color="#5CC796" offset=".031"/><stop stop-color="#5CC896" offset=".035"/><stop stop-color="#5BC896" offset=".039"/><stop stop-color="#5BC996" offset=".043"/><stop stop-color="#5BC996" offset=".047"/><stop stop-color="#5ACA96" offset=".051"/><stop stop-color="#5ACB96" offset=".055"/><stop stop-color="#5ACB96" offset=".059"/><stop stop-color="#59CC96" offset=".063"/><stop stop-color="#59CC96" offset=".066"/><stop stop-color="#59CD96" offset=".07"/><stop stop-color="#58CD96" offset=".074"/><stop stop-color="#58CE96" offset=".078"/><stop stop-color="#58CE96" offset=".082"/><stop stop-color="#57CF96" offset=".086"/><stop stop-color="#57D096" offset=".09"/><stop stop-color="#57D096" offset=".094"/><stop stop-color="#56D196" offset=".098"/><stop stop-color="#56D196" offset=".102"/><stop stop-color="#56D296" offset=".105"/><stop stop-color="#55D296" offset=".109"/><stop stop-color="#55D396" offset=".113"/><stop stop-color="#54D496" offset=".117"/><stop stop-color="#54D496" offset=".121"/><stop stop-color="#54D597" offset=".125"/><stop stop-color="#53D597" offset=".129"/><stop stop-color="#53D697" offset=".133"/><stop stop-color="#53D697" offset=".137"/><stop stop-color="#52D797" offset=".141"/><stop stop-color="#52D897" offset=".145"/><stop stop-color="#52D897" offset=".148"/><stop stop-color="#51D997" offset=".152"/><stop stop-color="#51D997" offset=".156"/><stop stop-color="#51DA97" offset=".16"/><stop stop-color="#50DA97" offset=".164"/><stop stop-color="#50DB97" offset=".168"/><stop stop-color="#50DB97" offset=".172"/><stop stop-color="#50DC97" offset=".18"/><stop stop-color="#4FDD97" offset=".188"/><stop stop-color="#4EDD97" offset=".195"/><stop stop-color="#4EDE97" offset=".203"/><stop stop-color="#4DDF97" offset=".211"/><stop stop-color="#4DE097" offset=".219"/><stop stop-color="#4CE197" offset=".227"/><stop stop-color="#4CE297" offset=".234"/><stop stop-color="#4BE397" offset=".242"/><stop stop-color="#4AE397" offset=".25"/><stop stop-color="#4AE497" offset=".258"/><stop stop-color="#49E598" offset=".266"/><stop stop-color="#49E698" offset=".273"/><stop stop-color="#48E798" offset=".281"/><stop stop-color="#48E898" offset=".289"/><stop stop-color="#47E898" offset=".297"/><stop stop-color="#46E998" offset=".305"/><stop stop-color="#46EA98" offset=".313"/><stop stop-color="#45EB98" offset=".32"/><stop stop-color="#45EC98" offset=".328"/><stop stop-color="#44ED98" offset=".336"/><stop stop-color="#44ED98" offset=".344"/><stop stop-color="#44EE98" offset=".344"/><stop stop-color="#43EE98" offset=".352"/><stop stop-color="#43EE98" offset=".359"/><stop stop-color="#43EF98" offset=".367"/><stop stop-color="#43EF98" offset=".375"/><stop stop-color="#42F098" offset=".383"/><stop stop-color="#42F198" offset=".391"/><stop stop-color="#42F198" offset=".398"/><stop stop-color="#41F298" offset=".406"/><stop stop-color="#41F298" offset=".414"/><stop stop-color="#41F398" offset=".422"/><stop stop-color="#40F498" offset=".438"/><stop stop-color="#40F498" offset=".5"/><stop stop-color="#40F498" offset=".656"/><stop stop-color="#40F498" offset="1"/></linearGradient></defs><path d="M 1081.03125 465.832031 L 44.289062 465.832031 C 21.480469 465.832031 2.820312 447.160156 2.820312 424.332031 L 2.820312 175.332031 C 2.820312 152.507812 21.480469 133.832031 44.289062 133.832031 L 1081.027344 133.832031 C 1103.835938 133.832031 1122.5 152.507812 1122.5 175.332031 L 1122.5 424.332031 C 1122.5 447.160156 1103.835938 465.832031 1081.027344 465.832031"/><path fill="#A6A6A6" d="M 1081.03125 133.832031 L 44.289062 133.832031 C 21.480469 133.832031 2.820312 152.507812 2.820312 175.332031 L 2.820312 424.332031 C 2.820312 447.160156 21.480469 465.832031 44.289062 465.832031 L 1081.027344 465.832031 C 1103.835938 465.832031 1122.5 447.160156 1122.5 424.332031 L 1122.5 175.332031 C 1122.5 152.507812 1103.835938 133.832031 1081.027344 133.832031 M 1081.027344 140.472656 C 1100.238281 140.472656 1115.863281 156.113281 1115.863281 175.332031 L 1115.863281 424.332031 C 1115.863281 443.554688 1100.238281 459.195312 1081.027344 459.195312 L 44.289062 459.195312 C 25.082031 459.195312 9.453125 443.554688 9.453125 424.332031 L 9.453125 175.332031 C 9.453125 156.113281 25.082031 140.472656 44.289062 140.472656 L 1081.027344 140.472656"/><path fill="#FFF" d="M 396.105469 218.855469 C 396.105469 225.808594 394.046875 231.34375 389.925781 235.476562 C 385.242188 240.386719 379.140625 242.84375 371.640625 242.84375 C 364.460938 242.84375 358.351562 240.355469 353.332031 235.367188 C 348.300781 230.386719 345.789062 224.207031 345.789062 216.832031 C 345.789062 209.457031 348.300781 203.28125 353.332031 198.292969 C 358.351562 193.3125 364.460938 190.816406 371.640625 190.816406 C 375.207031 190.816406 378.617188 191.515625 381.859375 192.90625 C 385.097656 194.300781 387.695312 196.152344 389.640625 198.46875 L 385.265625 202.847656 C 381.972656 198.910156 377.433594 196.941406 371.640625 196.941406 C 366.402344 196.941406 361.875 198.785156 358.050781 202.46875 C 354.226562 206.160156 352.316406 210.945312 352.316406 216.832031 C 352.316406 222.722656 354.226562 227.507812 358.050781 231.195312 C 361.875 234.882812 366.402344 236.722656 371.640625 236.722656 C 377.199219 236.722656 381.832031 234.871094 385.542969 231.164062 C 387.949219 228.746094 389.339844 225.390625 389.714844 221.078125 L 371.640625 221.078125 L 371.640625 215.09375 L 395.757812 215.09375 C 395.988281 216.394531 396.101562 217.644531 396.101562 218.855469"/><path fill="#FFF" d="M 396.105469 218.855469 L 395.273438 218.855469 C 395.265625 225.648438 393.285156 230.925781 389.335938 234.890625 L 389.328125 234.894531 L 389.324219 234.902344 C 384.792969 239.644531 378.96875 242.003906 371.640625 242.015625 C 364.652344 242.003906 358.800781 239.621094 353.914062 234.78125 C 349.039062 229.933594 346.628906 224.019531 346.617188 216.832031 C 346.628906 209.644531 349.039062 203.730469 353.914062 198.886719 C 358.800781 194.046875 364.652344 191.65625 371.640625 191.648438 C 375.097656 191.648438 378.390625 192.324219 381.53125 193.667969 C 384.671875 195.023438 387.15625 196.800781 389.003906 199.003906 L 389.640625 198.46875 L 389.054688 197.882812 L 384.679688 202.265625 L 385.265625 202.847656 L 385.902344 202.316406 C 382.457031 198.183594 377.617188 196.101562 371.640625 196.113281 C 366.210938 196.105469 361.429688 198.046875 357.476562 201.875 C 353.488281 205.710938 351.480469 210.765625 351.488281 216.832031 C 351.480469 222.898438 353.488281 227.953125 357.476562 231.792969 C 361.429688 235.617188 366.210938 237.5625 371.640625 237.554688 C 377.382812 237.5625 382.277344 235.617188 386.128906 231.75 C 388.699219 229.167969 390.15625 225.59375 390.539062 221.148438 L 390.617188 220.246094 L 372.472656 220.246094 L 372.472656 215.925781 L 395.757812 215.925781 L 395.757812 215.09375 L 394.941406 215.242188 C 395.167969 216.5 395.273438 217.695312 395.273438 218.855469 L 396.933594 218.855469 C 396.933594 217.59375 396.816406 216.296875 396.574219 214.945312 L 396.449219 214.265625 L 370.8125 214.265625 L 370.8125 221.90625 L 389.714844 221.90625 L 389.714844 221.078125 L 388.886719 221.007812 C 388.523438 225.183594 387.195312 228.328125 384.953125 230.578125 C 381.390625 234.128906 377.015625 235.882812 371.640625 235.894531 C 366.597656 235.886719 362.320312 234.148438 358.628906 230.601562 C 354.972656 227.0625 353.15625 222.546875 353.148438 216.832031 C 353.15625 211.121094 354.972656 206.605469 358.628906 203.066406 C 362.320312 199.515625 366.597656 197.777344 371.640625 197.773438 C 377.25 197.785156 381.484375 199.640625 384.632812 203.382812 L 385.214844 204.078125 L 390.226562 199.054688 L 390.765625 198.519531 L 390.273438 197.9375 C 388.238281 195.507812 385.523438 193.578125 382.183594 192.144531 C 378.839844 190.707031 375.3125 189.988281 371.640625 189.988281 C 364.269531 189.980469 357.90625 192.574219 352.746094 197.707031 C 347.5625 202.832031 344.953125 209.269531 344.960938 216.832031 C 344.953125 224.394531 347.5625 230.835938 352.746094 235.960938 C 357.90625 241.089844 364.269531 243.683594 371.640625 243.675781 C 379.320312 243.683594 385.691406 241.128906 390.523438 236.050781 L 389.925781 235.476562 L 390.511719 236.0625 C 394.808594 231.765625 396.9375 225.964844 396.933594 218.855469 L 396.101562 218.855469 M 434.332031 198.050781 L 411.671875 198.050781 L 411.671875 213.839844 L 432.109375 213.839844 L 432.109375 219.824219 L 411.671875 219.824219 L 411.671875 235.617188 L 434.332031 235.617188 L 434.332031 241.734375 L 405.28125 241.734375 L 405.28125 191.933594 L 434.332031 191.933594 L 434.332031 198.050781"/><path fill="#FFF" d="M 434.332031 198.050781 L 434.332031 197.222656 L 410.839844 197.222656 L 410.839844 214.671875 L 431.277344 214.671875 L 431.277344 218.992188 L 410.839844 218.996094 L 410.839844 236.445312 L 433.503906 236.445312 L 433.503906 240.902344 L 406.109375 240.902344 L 406.109375 192.761719 L 433.503906 192.761719 L 433.503906 198.050781 L 434.332031 198.050781 L 434.332031 197.222656 L 434.332031 198.050781 L 435.160156 198.050781 L 435.160156 191.101562 L 404.453125 191.101562 L 404.453125 242.5625 L 435.160156 242.5625 L 435.160156 234.785156 L 412.5 234.785156 L 412.5 220.65625 L 432.9375 220.65625 L 432.9375 213.011719 L 412.5 213.011719 L 412.5 198.882812 L 435.160156 198.882812 L 435.160156 198.050781 L 434.332031 198.050781 M 461.296875 241.734375 L 454.898438 241.734375 L 454.898438 198.050781 L 441 198.050781 L 441 191.933594 L 475.195312 191.933594 L 475.195312 198.050781 L 461.296875 198.050781 L 461.296875 241.734375"/><path fill="#FFF" d="M 461.296875 241.734375 L 461.296875 240.902344 L 455.726562 240.902344 L 455.726562 197.222656 L 441.828125 197.222656 L 441.828125 192.765625 L 474.367188 192.765625 L 474.367188 197.222656 L 460.46875 197.222656 L 460.46875 241.734375 L 461.296875 241.734375 L 461.296875 240.902344 L 461.296875 241.734375 L 462.128906 241.734375 L 462.128906 198.882812 L 476.027344 198.882812 L 476.027344 191.101562 L 440.171875 191.101562 L 440.171875 198.882812 L 454.070312 198.882812 L 454.070312 242.5625 L 462.128906 242.5625 L 462.128906 241.734375 L 461.296875 241.734375 M 499.9375 241.734375 L 499.9375 191.933594 L 506.332031 191.933594 L 506.332031 241.734375 L 499.9375 241.734375"/><path fill="#FFF" d="M 499.9375 241.734375 L 500.769531 241.734375 L 500.769531 192.761719 L 505.5 192.761719 L 505.5 240.902344 L 499.9375 240.902344 L 499.9375 241.734375 L 500.769531 241.734375 L 499.9375 241.734375 L 499.9375 242.5625 L 507.160156 242.5625 L 507.160156 191.101562 L 499.109375 191.101562 L 499.109375 242.5625 L 499.9375 242.5625 L 499.9375 241.734375 M 534.695312 241.734375 L 528.296875 241.734375 L 528.296875 198.050781 L 514.398438 198.050781 L 514.398438 191.933594 L 548.59375 191.933594 L 548.59375 198.050781 L 534.695312 198.050781 L 534.695312 241.734375"/><path fill="#FFF" d="M 534.695312 241.734375 L 534.695312 240.902344 L 529.125 240.902344 L 529.125 197.222656 L 515.226562 197.222656 L 515.226562 192.765625 L 547.765625 192.765625 L 547.765625 197.222656 L 533.867188 197.222656 L 533.867188 241.734375 L 534.695312 241.734375 L 534.695312 240.902344 L 534.695312 241.734375 L 535.523438 241.734375 L 535.523438 198.882812 L 549.425781 198.882812 L 549.425781 191.101562 L 513.570312 191.101562 L 513.570312 198.882812 L 527.46875 198.882812 L 527.46875 242.5625 L 535.523438 242.5625 L 535.523438 241.734375 L 534.695312 241.734375 M 581.5625 231.128906 C 585.246094 234.859375 589.753906 236.722656 595.082031 236.722656 C 600.414062 236.722656 604.921875 234.859375 608.597656 231.128906 C 612.285156 227.398438 614.132812 222.625 614.132812 216.832031 C 614.132812 211.039062 612.285156 206.269531 608.597656 202.539062 C 604.921875 198.808594 600.414062 196.941406 595.082031 196.941406 C 589.753906 196.941406 585.246094 198.808594 581.5625 202.539062 C 577.886719 206.269531 576.039062 211.039062 576.039062 216.832031 C 576.039062 222.625 577.886719 227.398438 581.5625 231.128906 Z M 613.328125 235.296875 C 608.4375 240.332031 602.351562 242.84375 595.082031 242.84375 C 587.804688 242.84375 581.722656 240.332031 576.84375 235.296875 C 571.945312 230.269531 569.511719 224.113281 569.511719 216.832031 C 569.511719 209.554688 571.945312 203.398438 576.84375 198.367188 C 581.726562 193.332031 587.804688 190.816406 595.082031 190.816406 C 602.316406 190.816406 608.382812 193.347656 613.296875 198.402344 C 618.207031 203.457031 620.660156 209.601562 620.660156 216.832031 C 620.660156 224.113281 618.210938 230.269531 613.328125 235.296875 Z M 613.328125 235.296875"/><path fill="#FFF" d="M 581.5625 231.128906 L 580.972656 231.710938 C 584.792969 235.59375 589.558594 237.5625 595.082031 237.554688 C 600.605469 237.5625 605.375 235.59375 609.191406 231.710938 C 613.035156 227.828125 614.96875 222.800781 614.960938 216.832031 C 614.96875 210.863281 613.035156 205.839844 609.191406 201.953125 C 605.375 198.074219 600.605469 196.101562 595.082031 196.113281 C 589.558594 196.101562 584.792969 198.074219 580.972656 201.953125 C 577.136719 205.839844 575.199219 210.863281 575.210938 216.832031 C 575.199219 222.800781 577.136719 227.828125 580.972656 231.710938 L 581.5625 231.128906 L 582.152344 230.542969 C 578.632812 226.960938 576.875 222.457031 576.867188 216.832031 C 576.875 211.210938 578.632812 206.703125 582.152344 203.121094 C 585.703125 199.539062 589.945312 197.78125 595.082031 197.773438 C 600.21875 197.78125 604.46875 199.539062 608.011719 203.121094 C 611.535156 206.703125 613.292969 211.210938 613.300781 216.832031 C 613.292969 222.453125 611.535156 226.960938 608.011719 230.542969 C 604.46875 234.128906 600.21875 235.882812 595.082031 235.894531 C 589.945312 235.882812 585.703125 234.128906 582.152344 230.542969 Z M 613.328125 235.296875 L 612.738281 234.722656 C 607.980469 239.597656 602.164062 242.007812 595.082031 242.015625 C 587.996094 242.003906 582.183594 239.597656 577.433594 234.722656 L 577.414062 234.695312 L 577.433594 234.722656 C 572.6875 229.828125 570.347656 223.925781 570.339844 216.832031 C 570.347656 209.738281 572.691406 203.839844 577.433594 198.945312 C 582.183594 194.070312 587.996094 191.65625 595.082031 191.648438 C 602.121094 191.65625 607.921875 194.078125 612.703125 198.980469 C 617.464844 203.898438 619.820312 209.789062 619.832031 216.832031 C 619.820312 223.925781 617.472656 229.828125 612.738281 234.722656 L 613.328125 235.296875 L 613.925781 235.875 C 618.953125 230.707031 621.496094 224.296875 621.492188 216.832031 C 621.496094 209.414062 618.945312 203.015625 613.894531 197.824219 C 608.839844 192.613281 602.507812 189.980469 595.082031 189.988281 C 587.617188 189.980469 581.269531 192.601562 576.246094 197.792969 L 576.246094 197.789062 C 571.210938 202.960938 568.675781 209.371094 568.683594 216.832031 C 568.675781 224.296875 571.210938 230.707031 576.246094 235.878906 L 576.269531 235.902344 L 576.246094 235.875 C 581.269531 241.066406 587.617188 243.683594 595.082031 243.675781 C 602.542969 243.683594 608.894531 241.066406 613.925781 235.875 Z M 629.636719 241.734375 L 629.636719 191.933594 L 637.417969 191.933594 L 661.601562 230.675781 L 661.878906 230.675781 L 661.601562 221.078125 L 661.601562 191.933594 L 668 191.933594 L 668 241.734375 L 661.328125 241.734375 L 636.023438 201.113281 L 635.75 201.113281 L 636.023438 210.714844 L 636.023438 241.734375 L 629.636719 241.734375"/><path fill="#FFF" d="M 629.636719 241.734375 L 630.464844 241.734375 L 630.464844 192.761719 L 636.957031 192.761719 L 661.140625 231.503906 L 662.730469 231.503906 L 662.433594 221.066406 L 662.433594 192.765625 L 667.171875 192.765625 L 667.171875 240.902344 L 661.789062 240.902344 L 636.484375 200.285156 L 634.898438 200.285156 L 635.195312 210.730469 L 635.195312 240.902344 L 629.636719 240.902344 L 629.636719 241.734375 L 630.464844 241.734375 L 629.636719 241.734375 L 629.636719 242.5625 L 636.855469 242.5625 L 636.855469 210.703125 L 636.578125 201.09375 L 635.75 201.113281 L 635.75 201.945312 L 636.023438 201.945312 L 636.023438 201.113281 L 635.320312 201.554688 L 660.867188 242.5625 L 668.832031 242.5625 L 668.832031 191.101562 L 660.773438 191.101562 L 660.773438 221.085938 L 661.046875 230.695312 L 661.878906 230.675781 L 661.878906 229.84375 L 661.601562 229.84375 L 661.601562 230.675781 L 662.304688 230.234375 L 637.878906 191.101562 L 628.804688 191.101562 L 628.804688 242.5625 L 629.636719 242.5625 L 629.636719 241.734375 M 889.738281 382.832031 L 905.214844 382.832031 L 905.214844 279.074219 L 889.738281 279.074219 Z M 1029.132812 316.449219 L 1011.394531 361.433594 L 1010.863281 361.433594 L 992.449219 316.449219 L 975.777344 316.449219 L 1003.390625 379.324219 L 987.648438 414.296875 L 1003.796875 414.296875 L 1046.34375 316.449219 Z M 941.367188 371.046875 C 936.292969 371.046875 929.226562 368.511719 929.226562 362.234375 C 929.226562 354.226562 938.035156 351.15625 945.628906 351.15625 C 952.441406 351.15625 955.632812 352.625 959.773438 354.628906 C 958.570312 364.238281 950.300781 371.046875 941.367188 371.046875 Z M 943.234375 314.179688 C 932.027344 314.179688 920.425781 319.121094 915.625 330.066406 L 929.359375 335.804688 C 932.292969 330.066406 937.761719 328.195312 943.5 328.195312 C 951.503906 328.195312 959.640625 333.003906 959.773438 341.546875 L 959.773438 342.613281 C 956.96875 341.011719 950.972656 338.609375 943.632812 338.609375 C 928.828125 338.609375 913.75 346.75 913.75 361.96875 C 913.75 375.851562 925.890625 384.796875 939.492188 384.796875 C 949.902344 384.796875 955.632812 380.125 959.242188 374.652344 L 959.773438 374.652344 L 959.773438 382.660156 L 974.710938 382.660156 L 974.710938 342.878906 C 974.710938 324.460938 960.976562 314.179688 943.234375 314.179688 Z M 847.589844 329.082031 L 825.578125 329.082031 L 825.578125 293.515625 L 847.589844 293.515625 C 859.160156 293.515625 865.726562 303.101562 865.726562 311.296875 C 865.726562 319.339844 859.160156 329.082031 847.589844 329.082031 Z M 847.191406 279.074219 L 810.109375 279.074219 L 810.109375 382.832031 L 825.574219 382.832031 L 825.574219 343.523438 L 847.191406 343.523438 C 864.34375 343.523438 881.203125 331.09375 881.203125 311.296875 C 881.203125 291.5 864.34375 279.074219 847.191406 279.074219 Z M 644.976562 371.066406 C 634.285156 371.066406 625.332031 362.109375 625.332031 349.804688 C 625.332031 337.371094 634.285156 328.277344 644.976562 328.277344 C 655.53125 328.277344 663.816406 337.371094 663.816406 349.804688 C 663.816406 362.109375 655.53125 371.066406 644.976562 371.066406 Z M 662.746094 322.261719 L 662.210938 322.261719 C 658.738281 318.117188 652.054688 314.371094 643.636719 314.371094 C 626 314.371094 609.835938 329.882812 609.835938 349.804688 C 609.835938 369.597656 626 384.972656 643.636719 384.972656 C 652.054688 384.972656 658.738281 381.226562 662.210938 376.953125 L 662.746094 376.953125 L 662.746094 382.03125 C 662.746094 395.539062 655.53125 402.761719 643.90625 402.761719 C 634.421875 402.761719 628.539062 395.9375 626.132812 390.191406 L 612.640625 395.804688 C 616.515625 405.164062 626.804688 416.664062 643.90625 416.664062 C 662.078125 416.664062 677.445312 405.964844 677.445312 379.894531 L 677.445312 316.511719 L 662.746094 316.511719 Z M 688.132812 382.832031 L 703.632812 382.832031 L 703.632812 279.070312 L 688.132812 279.070312 Z M 726.484375 348.601562 C 726.082031 334.960938 737.039062 328.011719 744.921875 328.011719 C 751.070312 328.011719 756.28125 331.085938 758.015625 335.5 Z M 774.585938 336.835938 C 771.648438 328.945312 762.691406 314.371094 744.386719 314.371094 C 726.214844 314.371094 711.117188 328.679688 711.117188 349.671875 C 711.117188 369.464844 726.082031 384.972656 746.125 384.972656 C 762.292969 384.972656 771.648438 375.078125 775.523438 369.328125 L 763.496094 361.304688 C 759.492188 367.191406 754.007812 371.066406 746.125 371.066406 C 738.242188 371.066406 732.628906 367.457031 729.019531 360.371094 L 776.1875 340.847656 Z M 398.800781 325.203125 L 398.800781 340.179688 L 434.613281 340.179688 C 433.542969 348.601562 430.738281 354.753906 426.460938 359.03125 C 421.25 364.25 413.101562 369.996094 398.800781 369.996094 C 376.753906 369.996094 359.519531 352.214844 359.519531 330.152344 C 359.519531 308.085938 376.753906 290.300781 398.800781 290.300781 C 410.695312 290.300781 419.378906 294.984375 425.792969 301 L 436.347656 290.4375 C 427.398438 281.878906 415.503906 275.324219 398.800781 275.324219 C 368.605469 275.324219 343.214844 299.929688 343.214844 330.152344 C 343.214844 360.371094 368.605469 384.972656 398.800781 384.972656 C 415.105469 384.972656 427.398438 379.628906 437.015625 369.597656 C 446.902344 359.699219 449.980469 345.792969 449.980469 334.5625 C 449.980469 331.085938 449.710938 327.878906 449.175781 325.203125 Z M 490.691406 371.066406 C 480 371.066406 470.777344 362.242188 470.777344 349.671875 C 470.777344 336.96875 480 328.277344 490.691406 328.277344 C 501.378906 328.277344 510.597656 336.96875 510.597656 349.671875 C 510.597656 362.242188 501.378906 371.066406 490.691406 371.066406 Z M 490.691406 314.371094 C 471.179688 314.371094 455.277344 329.214844 455.277344 349.671875 C 455.277344 369.996094 471.179688 384.972656 490.691406 384.972656 C 510.195312 384.972656 526.097656 369.996094 526.097656 349.671875 C 526.097656 329.214844 510.195312 314.371094 490.691406 314.371094 Z M 567.933594 371.066406 C 557.246094 371.066406 548.023438 362.242188 548.023438 349.671875 C 548.023438 336.96875 557.246094 328.277344 567.933594 328.277344 C 578.621094 328.277344 587.84375 336.96875 587.84375 349.671875 C 587.84375 362.242188 578.621094 371.066406 567.933594 371.066406 Z M 567.933594 314.371094 C 548.421875 314.371094 532.527344 329.214844 532.527344 349.671875 C 532.527344 369.996094 548.421875 384.972656 567.933594 384.972656 C 587.441406 384.972656 603.34375 369.996094 603.34375 349.671875 C 603.34375 329.214844 587.441406 314.371094 567.933594 314.371094 Z M 567.933594 314.371094"/><path fill="#00C1FF" d="M 89.976562 197.007812 C 87.191406 199.519531 85.53125 203.710938 85.53125 209.277344 L 85.53125 208.019531 L 85.53125 391.625 L 85.53125 390.414062 C 85.53125 395.550781 86.957031 399.519531 89.371094 402.074219 L 89.984375 402.667969 C 91.9375 404.433594 94.445312 405.371094 97.316406 405.367188 C 100.121094 405.367188 103.277344 404.472656 106.605469 402.582031 L 226.996094 334.128906 L 268.347656 310.613281 C 273.597656 307.628906 276.546875 303.777344 277.039062 299.851562 L 277.039062 299.835938 C 276.546875 295.902344 273.597656 292.054688 268.347656 289.070312 L 226.992188 265.558594 L 106.605469 197.105469 C 103.269531 195.210938 100.109375 194.3125 97.296875 194.3125 C 94.429688 194.3125 91.929688 195.246094 89.976562 197.007812 Z M 89.976562 197.007812"/><g clip-path="url(#a)"><g clip-path="url(#b)"><path fill="url(#c)" d="M 85.53125 402.667969 L 85.53125 197.007812 L 192.738281 197.007812 L 192.738281 402.667969 Z M 85.53125 402.667969"/></g></g><g clip-path="url(#d)"><g clip-path="url(#e)"><path fill="url(#f)" d="M 192.738281 334.128906 L 192.738281 265.558594 L 277.039062 265.558594 L 277.039062 334.128906 Z M 192.738281 334.128906"/></g></g><g clip-path="url(#g)"><g clip-path="url(#h)"><path fill="url(#i)" d="M 89.988281 405.367188 L 89.988281 299.839844 L 226.996094 299.839844 L 226.996094 405.367188 Z M 89.988281 405.367188"/></g></g><g clip-path="url(#j)"><g clip-path="url(#k)"><path fill="url(#l)" d="M 89.976562 299.839844 L 89.976562 194.3125 L 226.992188 194.3125 L 226.992188 299.839844 Z M 89.976562 299.839844"/></g></g><g clip-path="url(#m)"><g clip-path="url(#n)"><path fill="url(#o)" d="M 89.371094 406.582031 L 89.371094 334.128906 L 227.765625 334.128906 L 227.765625 406.582031 Z M 89.371094 406.582031"/></g></g><g clip-path="url(#p)"><g clip-path="url(#q)"><path fill="#00C7E0" d="M 85.53125 403.285156 L 85.53125 390.414062 L 89.984375 390.414062 L 89.984375 403.285156 Z M 85.53125 403.285156"/></g></g><g clip-path="url(#r)"><g clip-path="url(#s)"><path fill="url(#t)" d="M 226.996094 334.902344 L 226.996094 299.851562 L 277.039062 299.851562 L 277.039062 334.902344 Z M 226.996094 334.902344"/></g></g><g clip-path="url(#u)"><g clip-path="url(#v)"><path fill="url(#w)" d="M 226.992188 299.835938 L 226.992188 264.785156 L 277.039062 264.785156 L 277.039062 299.835938 Z M 226.992188 299.835938"/></g></g><g clip-path="url(#x)"><g clip-path="url(#y)"><path fill="url(#z)" d="M 85.53125 209.277344 L 85.53125 196.398438 L 89.976562 196.398438 L 89.976562 209.277344 Z M 85.53125 209.277344"/></g></g><g clip-path="url(#A)"><g clip-path="url(#B)"><path fill="url(#C)" d="M 89.371094 265.558594 L 89.371094 193.101562 L 227.765625 193.101562 L 227.765625 265.558594 Z M 89.371094 265.558594"/></g></g></svg>